<svg width='200' height='200' fill="#0B610B" xmlns="http://www.w3.org/2000/svg" xmlns:xlink="http://www.w3.org/1999/xlink" version="1.0" x="0px" y="0px" viewBox="0 0 100 100" enable-background="new 0 0 100 100" xml:space="preserve"><path d="M82.1012726,68.922699c-4.1074829-0.7420731-19.5426636-2.074234-19.5426636-4.0037079  c0-1.1808853,14.7384872-3.0899887,28.532959-3.4860001c-4.651741-0.4869614-13.1868515-1.4287834-20.0885391-1.8470955V42.138092  c2.7744141-0.4199257,4.9028625-2.8076096,4.9028625-5.6992683c0-3.1874466-2.5840149-5.7715893-5.7715912-5.7715893  c-3.1875687,0-5.7715836,2.5841427-5.7715836,5.7715893c0,2.8916588,2.1284409,5.2793427,4.9028549,5.6992683v17.3464127  c-2.6901093-0.1514053-5.501133-0.2825699-8.4090996-0.3833809V32.29673  c4.4199638-0.8447514,7.7620964-4.7255421,7.7620964-9.3915291c0-5.2837906-4.2833099-9.5671692-9.5671043-9.5671692  s-9.567234,4.2833786-9.567234,9.5671692c0,0.5341415,0.0547867,1.054554,0.1389656,1.5649109  c-0.6432648-0.2474442-1.3393822-0.3888588-2.0697899-0.3888588c-3.1877022,0-5.7715874,2.5840797-5.7715874,5.7716522  c0,2.8915329,2.1285744,5.2792778,4.902729,5.6991425V58.889904c-3.5847473,0.0204964-7.2371712,0.1006165-10.9192467,0.255825  v-6.6919479c4.4198303-0.8448143,7.7619667-4.7254753,7.7619667-9.3914642c0-5.2837906-4.2834435-9.5672989-9.567234-9.5672989  s-9.5671043,4.2835083-9.5671043,9.5672989c0,4.6024971,3.2511272,8.4433937,7.5816231,9.3578186v6.9115448  C23.3921967,59.8149681,14.7314615,60.728363,6.5,62.2599525c0,0,33.1275291-1.9100037,71.1443176-0.8824577  c-8.3746872,0.311512-17.0958786,0.7647629-21.418251,1.3895264c-9.7554436,1.4098969-4.9633179,4.0071869,2.2249336,5.4171524  c7.1882515,1.4099579,6.1614113,2.3004761,6.1614113,2.3004761c-1.1980934,2.7456665-23.997879,4.4684296-56.7496948,5.4908142  L35.8594704,86.661972c6.5036049-0.8905182,17.1148224-2.0778503,41.7601585-6.8271103  C113.7319565,72.6366806,86.2088852,69.664772,82.1012726,68.922699z M57.0657272,58.9894257  c-2.8143806-0.0687103-5.7032661-0.1062889-8.6435928-0.1050644V35.5520477  c2.555912-0.3868637,4.5606041-2.4440193,4.8605766-5.0275173c1.1010284,0.835083,2.3827858,1.4430256,3.7830162,1.7386189  V58.9894257z"></path></svg>
